<svg width="19" height="32" viewBox="0 0 19 32" fill="none" xmlns="http://www.w3.org/2000/svg">
<g clip-path="url(#clip0_99_262)">
<path d="M14.0341 13.239C11.9669 12.0331 9.7704 11.7747 7.44476 12.2054C7.10023 12.2915 6.79875 12.4207 6.97102 12.8514C7.22943 13.4974 7.48783 14.1003 7.74624 14.7464C7.91851 15.134 8.21998 15.2632 8.60758 15.177C9.98574 14.9617 11.2347 15.2201 12.4837 15.8661C14.9385 17.1581 16.3167 20.1298 15.6276 22.8861C14.9816 25.5563 12.2253 27.7096 9.55507 27.7096C6.75569 27.7096 4.21471 25.7716 3.4395 23.0584C2.66429 20.3882 3.74097 17.5888 6.15274 16.0814C6.49728 15.8661 6.58342 15.6508 6.41115 15.3062C6.15274 14.7464 5.89434 14.1434 5.679 13.5405C5.50673 13.0237 5.24833 13.0237 4.86072 13.2821C1.15693 15.4785 -0.651898 19.8283 0.510921 24.0058C1.5876 28.0542 5.37753 30.8966 10.5887 30.8535C12.5268 30.8105 14.8524 29.7338 16.7043 27.5804C18.2978 25.7285 19.1161 23.5321 18.9869 21.1203C18.8146 17.6319 17.0488 15.0048 14.0341 13.239Z" fill="#5484F4"/>
<path d="M4.38701 12.4208C4.90382 12.3777 5.03302 12.2055 4.86075 11.6886C4.60234 10.8704 4.21474 10.3105 3.31032 10.009C2.31977 9.66448 1.97524 8.5878 2.31977 7.55418C2.66431 6.56363 3.65486 6.04682 4.68848 6.26216C5.07609 6.34829 5.46369 6.69283 5.8513 6.21909C6.15277 5.87455 6.49731 5.61615 6.79878 5.27161C7.01412 5.01321 6.71264 4.884 6.58344 4.79787C5.89436 4.32413 5.11915 4.02266 4.1286 4.02266C3.39646 3.97959 2.66431 4.28106 1.97524 4.66867C0.338676 5.61615 -0.393469 7.68338 0.209474 9.57835C0.769349 11.3441 2.57818 12.55 4.38701 12.4208Z" fill="#6890CB"/>
<path d="M7.61689 4.32397C7.96143 3.93636 8.34904 3.67796 8.39211 3.07502C8.43517 2.42901 8.99505 1.99833 9.55492 2.08447C10.1579 2.1706 10.5455 2.51514 10.5885 3.16115C10.6316 3.76409 10.2871 4.19477 9.59799 4.2809C9.08118 4.32397 8.73664 4.62544 8.39211 4.92691C7.96143 5.31452 8.1337 5.48679 8.56437 5.65906C10.3301 6.30507 12.139 5.01305 12.139 3.07502C12.139 1.82606 11.3638 0.835514 10.0717 0.57711C8.99505 0.361773 8.0045 0.57711 7.27235 1.48152C6.62634 2.2998 6.54021 3.24729 6.92782 4.19477C7.05702 4.53931 7.27235 4.66851 7.61689 4.32397Z" fill="#BBCEFF"/>
<path d="M6.19594 11.215C6.36821 11.7318 6.66968 11.7318 7.01422 11.3873C7.9617 10.5259 8.34931 9.44924 8.34931 8.20029C8.34931 7.64041 8.26317 7.08054 8.04784 6.56373C7.74637 5.61625 7.66023 5.61625 6.97115 6.26226C6.41128 6.77907 5.93754 7.25281 6.23901 8.11415C6.32514 8.37256 6.32514 8.76016 6.10981 8.9755C5.4638 9.79378 5.9806 10.4829 6.19594 11.215Z" fill="#6890CB"/>
</g>
<defs>
<clipPath id="clip0_99_262">
<rect width="19" height="31" fill="white" transform="translate(0 0.5)"/>
</clipPath>
</defs>
</svg>
