<svg width="33" height="32" viewBox="0 0 33 32" fill="none" xmlns="http://www.w3.org/2000/svg">
<path d="M20.5 23H12.36C12.2607 22.6494 12.1161 22.3133 11.93 22L22.5 11.43C23.102 11.7994 23.7938 11.9966 24.5 12C25.2487 12.0024 25.9831 11.7947 26.6195 11.4004C27.256 11.0061 27.769 10.4412 28.1002 9.76974C28.4315 9.09832 28.5676 8.34741 28.4932 7.60243C28.4188 6.85745 28.1368 6.14831 27.6793 5.55568C27.2218 4.96305 26.6071 4.51072 25.9052 4.25013C25.2034 3.98955 24.4424 3.93118 23.709 4.08166C22.9756 4.23214 22.2992 4.58544 21.7566 5.10135C21.2141 5.61727 20.8272 6.2751 20.64 7.00001H12.36C12.1167 6.05735 11.5378 5.23582 10.732 4.68941C9.92626 4.143 8.94886 3.90922 7.98304 4.03189C7.01723 4.15457 6.12931 4.62527 5.48572 5.35578C4.84213 6.08628 4.48706 7.02644 4.48706 8.00001C4.48706 8.97358 4.84213 9.91374 5.48572 10.6442C6.12931 11.3747 7.01723 11.8455 7.98304 11.9681C8.94886 12.0908 9.92626 11.857 10.732 11.3106C11.5378 10.7642 12.1167 9.94267 12.36 9.00001H20.64C20.7394 9.35058 20.8839 9.68674 21.07 10L10.5 20.57C9.89808 20.2006 9.2063 20.0035 8.50004 20C7.75136 19.9976 7.01703 20.2053 6.38057 20.5996C5.74412 20.9939 5.23109 21.5589 4.89985 22.2303C4.56861 22.9017 4.43246 23.6526 4.50688 24.3976C4.5813 25.1426 4.8633 25.8517 5.32081 26.4443C5.77832 27.037 6.39298 27.4893 7.09485 27.7499C7.79672 28.0105 8.55764 28.0688 9.29105 27.9184C10.0245 27.7679 10.7009 27.4146 11.2435 26.8987C11.786 26.3827 12.1729 25.7249 12.36 25H20.5V28H28.5V20H20.5V23ZM8.50004 10C8.10448 10 7.7178 9.88271 7.3889 9.66295C7.06001 9.44319 6.80366 9.13083 6.65228 8.76538C6.50091 8.39992 6.4613 7.99779 6.53847 7.60983C6.61564 7.22187 6.80613 6.8655 7.08583 6.5858C7.36554 6.30609 7.7219 6.11561 8.10986 6.03844C8.49783 5.96127 8.89996 6.00087 9.26541 6.15225C9.63086 6.30363 9.94322 6.55997 10.163 6.88887C10.3827 7.21777 10.5 7.60445 10.5 8.00001C10.5 8.53044 10.2893 9.03915 9.91426 9.41422C9.53918 9.7893 9.03048 10 8.50004 10ZM24.5 6.00001C24.8956 6.00001 25.2823 6.11731 25.6112 6.33707C25.9401 6.55683 26.1964 6.86919 26.3478 7.23464C26.4992 7.60009 26.5388 8.00223 26.4616 8.39019C26.3844 8.77815 26.194 9.13452 25.9143 9.41422C25.6346 9.69393 25.2782 9.88441 24.8902 9.96158C24.5023 10.0388 24.1001 9.99914 23.7347 9.84777C23.3692 9.69639 23.0569 9.44005 22.8371 9.11115C22.6173 8.78225 22.5 8.39557 22.5 8.00001C22.5 7.46958 22.7108 6.96087 23.0858 6.5858C23.4609 6.21072 23.9696 6.00001 24.5 6.00001ZM8.50004 26C8.10448 26 7.7178 25.8827 7.3889 25.6629C7.06001 25.4432 6.80366 25.1308 6.65228 24.7654C6.50091 24.3999 6.4613 23.9978 6.53847 23.6098C6.61564 23.2219 6.80613 22.8655 7.08583 22.5858C7.36554 22.3061 7.7219 22.1156 8.10986 22.0384C8.49783 21.9613 8.89996 22.0009 9.26541 22.1523C9.63086 22.3036 9.94322 22.56 10.163 22.8889C10.3827 23.2178 10.5 23.6044 10.5 24C10.5 24.5304 10.2893 25.0392 9.91426 25.4142C9.53918 25.7893 9.03048 26 8.50004 26ZM22.5 22H26.5V26H22.5V22Z" fill="#003464"/>
</svg>
