<svg width="22" height="18" viewBox="0 0 22 18" fill="none" xmlns="http://www.w3.org/2000/svg">
<path d="M8.003 2.99993C8.003 2.20508 8.31875 1.44278 8.8808 0.880731C9.44285 0.318684 10.2051 0.00292969 11 0.00292969C11.7949 0.00292969 12.5572 0.318684 13.1192 0.880731C13.6812 1.44278 13.997 2.20508 13.997 2.99993C13.997 3.79478 13.6812 4.55708 13.1192 5.11913C12.5572 5.68118 11.7949 5.99693 11 5.99693C10.2051 5.99693 9.44285 5.68118 8.8808 5.11913C8.31875 4.55708 8.003 3.79478 8.003 2.99993ZM11 1.50293C10.8034 1.50293 10.6087 1.54165 10.4271 1.61688C10.2455 1.69211 10.0805 1.80238 9.94146 1.94139C9.80245 2.0804 9.69218 2.24543 9.61695 2.42705C9.54172 2.60868 9.503 2.80334 9.503 2.99993C9.503 3.19652 9.54172 3.39118 9.61695 3.57281C9.69218 3.75443 9.80245 3.91946 9.94146 4.05847C10.0805 4.19748 10.2455 4.30775 10.4271 4.38298C10.6087 4.45821 10.8034 4.49693 11 4.49693C11.397 4.49693 11.7778 4.33921 12.0585 4.05847C12.3393 3.77773 12.497 3.39696 12.497 2.99993C12.497 2.6029 12.3393 2.22213 12.0585 1.94139C11.7778 1.66065 11.397 1.50293 11 1.50293ZM15.5 3.74993C15.5 3.45446 15.5582 3.16187 15.6713 2.88889C15.7843 2.61591 15.9501 2.36787 16.159 2.15894C16.3679 1.95001 16.616 1.78427 16.889 1.6712C17.1619 1.55813 17.4545 1.49993 17.75 1.49993C18.0455 1.49993 18.3381 1.55813 18.611 1.6712C18.884 1.78427 19.1321 1.95001 19.341 2.15894C19.5499 2.36787 19.7157 2.61591 19.8287 2.88889C19.9418 3.16187 20 3.45446 20 3.74993C20 4.34667 19.7629 4.91896 19.341 5.34092C18.919 5.76288 18.3467 5.99993 17.75 5.99993C17.1533 5.99993 16.581 5.76288 16.159 5.34092C15.7371 4.91896 15.5 4.34667 15.5 3.74993ZM17.75 2.99993C17.5511 2.99993 17.3603 3.07895 17.2197 3.2196C17.079 3.36025 17 3.55102 17 3.74993C17 3.94884 17.079 4.13961 17.2197 4.28026C17.3603 4.42091 17.5511 4.49993 17.75 4.49993C17.9489 4.49993 18.1397 4.42091 18.2803 4.28026C18.421 4.13961 18.5 3.94884 18.5 3.74993C18.5 3.55102 18.421 3.36025 18.2803 3.2196C18.1397 3.07895 17.9489 2.99993 17.75 2.99993ZM4.25 1.49993C3.65326 1.49993 3.08097 1.73698 2.65901 2.15894C2.23705 2.5809 2 3.15319 2 3.74993C2 4.34667 2.23705 4.91896 2.65901 5.34092C3.08097 5.76288 3.65326 5.99993 4.25 5.99993C4.84674 5.99993 5.41903 5.76288 5.84099 5.34092C6.26295 4.91896 6.5 4.34667 6.5 3.74993C6.5 3.15319 6.26295 2.5809 5.84099 2.15894C5.41903 1.73698 4.84674 1.49993 4.25 1.49993ZM3.5 3.74993C3.5 3.55102 3.57902 3.36025 3.71967 3.2196C3.86032 3.07895 4.05109 2.99993 4.25 2.99993C4.44891 2.99993 4.63968 3.07895 4.78033 3.2196C4.92098 3.36025 5 3.55102 5 3.74993C5 3.94884 4.92098 4.13961 4.78033 4.28026C4.63968 4.42091 4.44891 4.49993 4.25 4.49993C4.05109 4.49993 3.86032 4.42091 3.71967 4.28026C3.57902 4.13961 3.5 3.94884 3.5 3.74993ZM5.402 7.49993C5.13867 7.95598 5.00002 8.47331 5 8.99993H2V12.7499C1.99988 13.123 2.09254 13.4903 2.26965 13.8187C2.44676 14.1471 2.70275 14.4263 3.01458 14.6312C3.32641 14.836 3.6843 14.9601 4.05601 14.9923C4.42773 15.0245 4.80161 14.9637 5.144 14.8154C5.255 15.3119 5.429 15.7859 5.654 16.2284C5.0847 16.4583 4.46766 16.5449 3.85708 16.4805C3.24651 16.4162 2.66106 16.2029 2.15216 15.8595C1.64326 15.516 1.22648 15.0529 0.938409 14.5107C0.650339 13.9685 0.499796 13.3639 0.5 12.7499V8.99993C0.5 8.60211 0.658035 8.22057 0.93934 7.93927C1.22064 7.65797 1.60218 7.49993 2 7.49993H5.402ZM16.346 16.2284C16.9153 16.4583 17.5323 16.5449 18.1429 16.4805C18.7535 16.4162 19.3389 16.2029 19.8478 15.8595C20.3567 15.516 20.7735 15.0529 21.0616 14.5107C21.3497 13.9685 21.5002 13.3639 21.5 12.7499V8.99993C21.5 8.60211 21.342 8.22057 21.0607 7.93927C20.7794 7.65797 20.3978 7.49993 20 7.49993H16.598C16.853 7.94093 17 8.45243 17 8.99993H20V12.7499C20.0001 13.123 19.9075 13.4903 19.7304 13.8187C19.5532 14.1471 19.2973 14.4263 18.9854 14.6312C18.6736 14.836 18.3157 14.9601 17.944 14.9923C17.5723 15.0245 17.1984 14.9637 16.856 14.8154C16.742 15.3134 16.572 15.7844 16.346 16.2284ZM8 7.49843C7.60218 7.49843 7.22064 7.65647 6.93934 7.93777C6.65804 8.21907 6.5 8.60061 6.5 8.99843V13.4999C6.5 14.6934 6.97411 15.838 7.81802 16.6819C8.66193 17.5258 9.80653 17.9999 11 17.9999C12.1935 17.9999 13.3381 17.5258 14.182 16.6819C15.0259 15.838 15.5 14.6934 15.5 13.4999V8.99993C15.5 8.60211 15.342 8.22057 15.0607 7.93927C14.7794 7.65797 14.3978 7.49993 14 7.49993L8 7.49843ZM8 8.99843H14V13.4999C14 14.2956 13.6839 15.0586 13.1213 15.6213C12.5587 16.1839 11.7956 16.4999 11 16.4999C10.2044 16.4999 9.44129 16.1839 8.87868 15.6213C8.31607 15.0586 8 14.2956 8 13.4999V8.99843Z" fill="#003464"/>
</svg>
