<svg width="26" height="26" viewBox="0 0 26 26" fill="none" xmlns="http://www.w3.org/2000/svg">
<path d="M22.7563 18.8716C21.9741 18.0888 21.0602 17.4499 20.0563 16.9841C21.472 15.8373 22.3751 14.0873 22.3751 12.1248C22.3751 8.66226 19.4876 5.82163 16.0251 5.87476C12.6157 5.92788 9.86883 8.70601 9.86883 12.1248C9.86883 14.0873 10.7751 15.8373 12.1876 16.9841C11.1836 17.4496 10.2695 18.0885 9.48758 18.8716C7.78133 20.581 6.81258 22.8373 6.75008 25.2435C6.74924 25.2769 6.75509 25.31 6.76728 25.3411C6.77947 25.3722 6.79776 25.4005 6.82105 25.4243C6.84435 25.4482 6.8722 25.4672 6.90294 25.4801C6.93369 25.4931 6.96672 25.4998 7.00008 25.4998H8.75008C8.88445 25.4998 8.99695 25.3935 9.00008 25.2591C9.05945 23.4466 9.79383 21.7498 11.0845 20.4623C11.7449 19.7983 12.5305 19.2719 13.3957 18.9136C14.2609 18.5553 15.1886 18.3721 16.1251 18.3748C18.0282 18.3748 19.8188 19.1154 21.1657 20.4623C22.4532 21.7498 23.1876 23.4466 23.2501 25.2591C23.2532 25.3935 23.3657 25.4998 23.5001 25.4998H25.2501C25.2834 25.4998 25.3165 25.4931 25.3472 25.4801C25.378 25.4672 25.4058 25.4482 25.4291 25.4243C25.4524 25.4005 25.4707 25.3722 25.4829 25.3411C25.4951 25.31 25.5009 25.2769 25.5001 25.2435C25.4376 22.8373 24.4688 20.581 22.7563 18.8716ZM16.1251 16.1248C15.0563 16.1248 14.0501 15.7091 13.297 14.9529C12.919 14.5779 12.6204 14.1306 12.4191 13.6378C12.2178 13.1449 12.1178 12.6165 12.1251 12.0841C12.1345 11.0591 12.5438 10.0685 13.2595 9.33413C14.0095 8.56538 15.0126 8.13726 16.0845 8.12476C17.1438 8.11538 18.172 8.52788 18.9282 9.26851C19.7032 10.0279 20.1282 11.0435 20.1282 12.1248C20.1282 13.1935 19.7126 14.1966 18.9563 14.9529C18.5853 15.3257 18.144 15.6212 17.6581 15.8224C17.1721 16.0235 16.651 16.1263 16.1251 16.1248ZM8.29695 12.9498C8.26883 12.6779 8.2532 12.4029 8.2532 12.1248C8.2532 11.6279 8.30008 11.1435 8.38758 10.6716C8.40945 10.5591 8.35008 10.4435 8.24695 10.3966C7.82195 10.206 7.43133 9.94351 7.09383 9.61226C6.69614 9.22666 6.3832 8.76239 6.17497 8.24908C5.96674 7.73577 5.8678 7.18469 5.88445 6.63101C5.91258 5.62788 6.3157 4.67476 7.01883 3.95601C7.7907 3.16538 8.8282 2.73413 9.93133 2.74663C10.9282 2.75601 11.8907 3.14038 12.6188 3.82163C12.8657 4.05288 13.0782 4.30913 13.2563 4.58413C13.3188 4.68101 13.4407 4.72163 13.547 4.68413C14.097 4.49351 14.6782 4.35913 15.2751 4.29663C15.4501 4.27788 15.5501 4.09038 15.472 3.93413C14.4563 1.92476 12.3813 0.537257 9.98133 0.499757C6.5157 0.446632 3.6282 3.28726 3.6282 6.74663C3.6282 8.70913 4.53133 10.4591 5.94695 11.606C4.9532 12.0654 4.03758 12.6998 3.24383 13.4935C1.53133 15.2029 0.562578 17.4591 0.500078 19.8685C0.499244 19.9019 0.505094 19.935 0.517284 19.9661C0.529474 19.9972 0.547756 20.0255 0.571054 20.0493C0.594353 20.0732 0.622195 20.0922 0.652941 20.1051C0.683687 20.1181 0.716715 20.1248 0.750078 20.1248H2.5032C2.63758 20.1248 2.75008 20.0185 2.7532 19.8841C2.81258 18.0716 3.54695 16.3748 4.83758 15.0873C5.75633 14.1685 6.88133 13.531 8.10945 13.2216C8.23133 13.1904 8.31258 13.0748 8.29695 12.9498Z" fill="#003464"/>
</svg>
