<svg width="32" height="32" viewBox="0 0 32 32" fill="none" xmlns="http://www.w3.org/2000/svg">
<path d="M26.6666 22.6667V9.33333C26.6666 6.44267 21.7826 4 15.9999 4C10.2173 4 5.33325 6.44267 5.33325 9.33333V22.6667C5.33325 25.5573 10.2173 28 15.9999 28C21.7826 28 26.6666 25.5573 26.6666 22.6667ZM15.9999 6.66667C20.9213 6.66667 23.9079 8.676 23.9999 9.32533C23.9079 9.99067 20.9213 12 15.9999 12C11.0786 12 8.09192 9.99067 7.99992 9.34133C8.09192 8.676 11.0786 6.66667 15.9999 6.66667ZM7.99992 12.8093C9.97192 13.9387 12.8493 14.6667 15.9999 14.6667C19.1506 14.6667 22.0279 13.9387 23.9999 12.8093V15.992C23.9079 16.6573 20.9213 18.6667 15.9999 18.6667C11.0786 18.6667 8.09192 16.6573 7.99992 16V12.8093ZM7.99992 22.6667V19.476C9.97192 20.6053 12.8493 21.3333 15.9999 21.3333C19.1506 21.3333 22.0279 20.6053 23.9999 19.476V22.6587C23.9079 23.324 20.9213 25.3333 15.9999 25.3333C11.0786 25.3333 8.09192 23.324 7.99992 22.6667Z" fill="#003464"/>
</svg>
