<svg width="32" height="32" viewBox="0 0 32 32" fill="none" xmlns="http://www.w3.org/2000/svg">
<path d="M26.6666 13.3335C26.9932 13.3335 27.3084 13.4534 27.5524 13.6705C27.7965 13.8875 27.9524 14.1865 27.9906 14.5108L27.9999 14.6668V21.3335C27.9999 22.7018 27.474 24.0178 26.5309 25.0092C25.5879 26.0007 24.2999 26.5917 22.9332 26.6602L22.6666 26.6668H5.33324C5.0846 26.6669 4.84089 26.5975 4.62964 26.4663C4.41839 26.3352 4.24801 26.1476 4.13776 25.9247C4.02751 25.7019 3.98177 25.4526 4.00571 25.2051C4.02965 24.9576 4.12232 24.7218 4.27324 24.5242L4.39058 24.3908L8.39058 20.3908C8.63052 20.1517 8.95249 20.0129 9.29109 20.0025C9.62969 19.9922 9.95953 20.1111 10.2136 20.3352C10.4677 20.5592 10.627 20.8716 10.6591 21.2088C10.6912 21.546 10.5938 21.8828 10.3866 22.1508L10.2759 22.2762L8.55191 24.0002H22.6666C23.3393 24.0004 23.9873 23.7463 24.4806 23.2888C24.9739 22.8314 25.2761 22.2044 25.3266 21.5335L25.3332 21.3335V14.6668C25.3332 14.3132 25.4737 13.9741 25.7238 13.724C25.9738 13.474 26.313 13.3335 26.6666 13.3335ZM26.6666 5.3335C26.9152 5.33342 27.1589 5.40288 27.3702 5.53401C27.5814 5.66515 27.7518 5.85274 27.8621 6.07561C27.9723 6.29847 28.0181 6.54772 27.9941 6.79521C27.9702 7.0427 27.8775 7.27856 27.7266 7.47616L27.6092 7.6095L23.6092 11.6095C23.3693 11.8486 23.0473 11.9875 22.7087 11.9978C22.3701 12.0081 22.0403 11.8892 21.7862 11.6652C21.5321 11.4411 21.3728 11.1288 21.3407 10.7915C21.3086 10.4543 21.406 10.1175 21.6132 9.8495L21.7239 9.72416L23.4479 8.00016H9.33324C8.6607 8.00029 8.01305 8.25452 7.52002 8.71195C7.027 9.16937 6.72502 9.79619 6.67458 10.4668L6.66658 10.6668V17.3335C6.6662 17.6733 6.53607 18.0002 6.30278 18.2473C6.06949 18.4944 5.75064 18.6431 5.41138 18.6631C5.07213 18.683 4.73807 18.5726 4.47747 18.3545C4.21686 18.1364 4.04938 17.827 4.00924 17.4895L3.99991 17.3335V10.6668C3.99991 9.29851 4.52582 7.98253 5.46887 6.99108C6.41193 5.99964 7.69997 5.40858 9.06658 5.34016L9.33324 5.3335H26.6666Z" fill="#003464"/>
</svg>
